<svg xmlns="http://www.w3.org/2000/svg" width="1672" height="941" viewBox="0 0 1672 941" role="img" aria-labelledby="title desc">
  <title id="title">UC 5：第三者が判定を確認する</title>
  <desc id="desc">Cloudflareリソースをユースケース順に追加し、このユースケースで着目する経路だけを強調する。</desc>
  <defs>
    <pattern id="grid" width="44" height="44" patternUnits="userSpaceOnUse"><path d="M44 0H0V44" fill="none" stroke="#173047" stroke-width="1" opacity=".42"/></pattern>
    <marker id="cyan-arrow" markerWidth="10" markerHeight="10" refX="9" refY="3" orient="auto"><path d="M0 0L10 3L0 6Z" fill="#38D6E8"/></marker>
    <marker id="amber-arrow" markerWidth="10" markerHeight="10" refX="9" refY="3" orient="auto"><path d="M0 0L10 3L0 6Z" fill="#F4B740"/></marker>
    <marker id="purple-arrow" markerWidth="10" markerHeight="10" refX="9" refY="3" orient="auto"><path d="M0 0L10 3L0 6Z" fill="#A66CFF"/></marker>
    <marker id="green-arrow" markerWidth="10" markerHeight="10" refX="9" refY="3" orient="auto"><path d="M0 0L10 3L0 6Z" fill="#79D66A"/></marker>

  <!-- Cloudflare product icons from cloudflare/cloudflare-docs commit 3feb9a48. -->
  <symbol id="cf-workers" viewBox="0 0 48 49"><g fill="currentColor"><path d="m18.63 37.418-9.645-12.9 9.592-12.533-1.852-2.527L5.917 23.595l-.015 1.808 10.86 14.542z"/><path d="M21.997 6.503h-3.712l13.387 18.3-13.072 17.7h3.735L35.4 24.81z"/><path d="M29.175 6.503h-3.758l13.598 18.082-13.598 17.918h3.765l12.908-17.01v-1.808z"/></g></symbol>
  <symbol id="cf-d1" viewBox="0 0 65 64"><path fill="currentColor" d="m23.6 22.2 3.03 1.75v3.5L23.6 29.2l-3.03-1.75v-3.5zM20.06 49l3.54-3.54L27.14 49l-3.54 3.54zm3.54-14.7c.593 0 1.17.176 1.67.506.493.33.878.798 1.1 1.35a3 3 0 0 1-.65 3.27c-.42.42-.954.705-1.54.821a3 3 0 0 1-1.73-.171 3.04 3.04 0 0 1-1.35-1.1 3 3 0 0 1-.506-1.67c0-.796.316-1.56.879-2.12a3 3 0 0 1 2.12-.879zM10.3 11.2l6.42-4.89 1.21-.37h29l1.19.39 6.61 4.89.82 1.61v38L55 52.21l-4.83 5.11-1.46.63h-31.7l-1.37-.54-5.48-5.11-.64-1.47v-38zm3.21 25.4 4.47 4.94h.056v4h-1.83l-2.7-3v7.39l4.26 4h30l3.7-3.91V42.3l-3.67 3.24h-18.6v-4h17.2l5.19-4.61v-7.44l-3.67 3.25h-18.7v-4h17.2l5.19-4.6v-6.92l-3.67 3.26h-31.6l-2.74-2.8v6.12l4.47 4.94h.056v4h-1.83l-2.7-3zm32.7-26.7h-27.6l-4.07 3.11 3.4 3.48h28.4l4-3.56z"/></symbol>
  <symbol id="cf-queues" viewBox="0 0 40 40"><g fill="currentColor"><path d="M11.154 19.894 5.33 14.21l-1.612 1.65 2.656 2.594H1.942a1.442 1.442 0 1 0 0 2.884h4.433L3.72 23.927l1.61 1.653 5.823-5.685Zm28.352 0-5.823-5.685-1.612 1.65 2.656 2.594h-4.433a1.442 1.442 0 1 0 0 2.884h4.433l-2.655 2.591 1.611 1.653z"/><rect width="23.07" height="2.884" x="7.911" y="7" rx="1.442"/><rect width="23.07" height="2.884" x="7.911" y="30.07" rx="1.442"/><path d="M13.679 14.21c.796 0 1.442.645 1.442 1.441v8.651a1.442 1.442 0 1 1-2.884 0v-8.65c0-.797.646-1.443 1.442-1.443Zm5.767 0c.797 0 1.442.645 1.442 1.441v8.651a1.442 1.442 0 1 1-2.884 0v-8.65c0-.797.646-1.443 1.442-1.443Zm5.768 0c.796 0 1.442.645 1.442 1.441v8.651a1.442 1.442 0 1 1-2.884 0v-8.65c0-.797.645-1.443 1.442-1.443Z"/></g></symbol>
  <symbol id="cf-containers" viewBox="0 0 512 512"><g fill="none" stroke="currentColor" stroke-linecap="round" stroke-linejoin="round" stroke-width="32"><path d="M448 341.37V170.61A32 32 0 0 0 432.11 143l-152-88.46a47.94 47.94 0 0 0-48.24 0L79.89 143A32 32 0 0 0 64 170.61v170.76A32 32 0 0 0 79.89 369l152 88.46a48 48 0 0 0 48.24 0l152-88.46A32 32 0 0 0 448 341.37"/><path d="m69 153.99 187 110 187-110m-187 310v-200"/></g></symbol>
  <symbol id="cf-r2" viewBox="0 0 40 40"><path fill="currentColor" fill-rule="evenodd" d="M30.289 6.423c-2.43-.813-5.958-1.362-9.977-1.362-4.018 0-7.545.549-9.976 1.362-1.228.41-2.033.842-2.48 1.195q-.14.111-.204.18c.052.171.196.395.562.67.524.394 1.372.783 2.563 1.119 2.368.666 5.731 1.023 9.536 1.023s7.167-.357 9.535-1.023c1.191-.336 2.04-.725 2.563-1.119.366-.275.51-.499.562-.67a2 2 0 0 0-.204-.18c-.447-.353-1.252-.784-2.48-1.195m-20.24 5.624c-.885-.25-1.71-.552-2.424-.922v4.393c0 .196.097.514.625.941.535.433 1.391.869 2.576 1.252 2.36.764 5.71 1.222 9.486 1.222 3.778 0 7.128-.458 9.487-1.222 1.185-.383 2.041-.82 2.576-1.252.528-.427.625-.745.625-.94v-4.394c-.715.37-1.539.673-2.424.922-2.7.76-6.336 1.124-10.264 1.124s-7.564-.364-10.263-1.124m25.576 3.471V7.622c0-2.829-6.856-5.122-15.313-5.122C11.857 2.5 5 4.793 5 7.622v24.756c0 2.829 6.856 5.122 15.313 5.122 8.456 0 15.312-2.293 15.312-5.122zM33 19.134c-.7.393-1.505.726-2.375 1.008-2.708.877-6.358 1.352-10.313 1.352-3.954 0-7.604-.475-10.312-1.352-.87-.282-1.676-.615-2.375-1.008v4.28c0 .196.097.514.625.942.535.432 1.391.868 2.576 1.252 2.36.763 5.71 1.221 9.486 1.221 3.778 0 7.128-.458 9.487-1.221 1.185-.384 2.041-.82 2.576-1.252.528-.428.625-.746.625-.941v-4.28Zm-23 8.904c-.87-.281-1.676-.615-2.375-1.007v5.143c.044.048.116.117.231.208.447.353 1.252.785 2.48 1.195 2.43.813 5.958 1.362 9.976 1.362s7.546-.549 9.977-1.362c1.228-.41 2.033-.842 2.48-1.195a2 2 0 0 0 .231-.208v-5.143c-.7.392-1.505.726-2.375 1.007-2.708.877-6.358 1.352-10.313 1.352-3.954 0-7.604-.475-10.312-1.352m23.06 4.06-.01.016zm-25.495 0 .01.016zm3.997-15.726c.725 0 1.313-.573 1.313-1.28s-.588-1.281-1.313-1.281c-.724 0-1.312.573-1.312 1.28s.588 1.281 1.313 1.281Zm1.313 6.83c0 .706-.588 1.28-1.313 1.28-.724 0-1.312-.574-1.312-1.28 0-.708.588-1.281 1.313-1.281.724 0 1.312.573 1.312 1.28Zm-1.313 9.176c.725 0 1.313-.573 1.313-1.28s-.588-1.28-1.313-1.28c-.724 0-1.312.572-1.312 1.28 0 .707.588 1.28 1.313 1.28Z" clip-rule="evenodd"/></symbol>
  </defs>
  <rect width="1672" height="941" fill="#06111F"/>
  <rect width="1672" height="941" fill="url(#grid)"/>
  <path d="M0 24H1672" stroke="#A66CFF" stroke-width="5"/>
  <text x="50" y="78" fill="#F5F7FB" font-family="Noto Sans JP, Yu Gothic, sans-serif" font-size="40" font-weight="900" text-anchor="start">UC 5 / 5　第三者が判定を確認する</text>
  <text x="52" y="116" fill="#AAB7C8" font-family="Noto Sans JP, Yu Gothic, sans-serif" font-size="18" font-weight="500" text-anchor="start">公開記録だけを表示し、センサー値は見せない</text>
  <g opacity="0.62"><circle cx="545" cy="145" r="18" fill="#06111F" stroke="#79D66A" stroke-width="3"/><text x="545" y="151" fill="#79D66A" font-family="Noto Sans JP, Yu Gothic, sans-serif" font-size="15" font-weight="900" text-anchor="middle">1</text><text x="573" y="151" fill="#79D66A" font-family="Noto Sans JP, Yu Gothic, sans-serif" font-size="15" font-weight="700" text-anchor="start">認証</text></g><g opacity="0.62"><circle cx="755" cy="145" r="18" fill="#06111F" stroke="#79D66A" stroke-width="3"/><text x="755" y="151" fill="#79D66A" font-family="Noto Sans JP, Yu Gothic, sans-serif" font-size="15" font-weight="900" text-anchor="middle">2</text><text x="783" y="151" fill="#79D66A" font-family="Noto Sans JP, Yu Gothic, sans-serif" font-size="15" font-weight="700" text-anchor="start">1時間集計</text></g><g opacity="0.62"><circle cx="965" cy="145" r="18" fill="#06111F" stroke="#79D66A" stroke-width="3"/><text x="965" y="151" fill="#79D66A" font-family="Noto Sans JP, Yu Gothic, sans-serif" font-size="15" font-weight="900" text-anchor="middle">3</text><text x="993" y="151" fill="#79D66A" font-family="Noto Sans JP, Yu Gothic, sans-serif" font-size="15" font-weight="700" text-anchor="start">日次証明</text></g><g opacity="0.62"><circle cx="1175" cy="145" r="18" fill="#06111F" stroke="#79D66A" stroke-width="3"/><text x="1175" y="151" fill="#79D66A" font-family="Noto Sans JP, Yu Gothic, sans-serif" font-size="15" font-weight="900" text-anchor="middle">4</text><text x="1203" y="151" fill="#79D66A" font-family="Noto Sans JP, Yu Gothic, sans-serif" font-size="15" font-weight="700" text-anchor="start">署名・送信</text></g><g opacity="1"><circle cx="1385" cy="145" r="18" fill="#38D6E8" stroke="#38D6E8" stroke-width="3"/><text x="1385" y="151" fill="#06111F" font-family="Noto Sans JP, Yu Gothic, sans-serif" font-size="15" font-weight="900" text-anchor="middle">5</text><text x="1413" y="151" fill="#38D6E8" font-family="Noto Sans JP, Yu Gothic, sans-serif" font-size="15" font-weight="900" text-anchor="start">第三者確認</text></g>
  <rect x="350" y="205" width="900" height="535" rx="24" fill="#0A1625" stroke="#F6821F" stroke-width="3" stroke-dasharray="13 9"/>
  <rect x="380" y="185" width="245" height="40" rx="20" fill="#F6821F"/>
  <text x="503" y="212" fill="#08111D" font-family="Noto Sans JP, Yu Gothic, sans-serif" font-size="18" font-weight="900" text-anchor="middle">CLOUDFLARE</text>
  <path d="M298 350H385" fill="none" stroke="#52667A" stroke-width="2" stroke-linecap="round" stroke-linejoin="round" opacity=".16"/><path d="M500 415V510" fill="none" stroke="#52667A" stroke-width="2" stroke-linecap="round" stroke-linejoin="round" opacity=".16"/><path d="M298 390H385" fill="none" stroke="#52667A" stroke-width="2" stroke-linecap="round" stroke-linejoin="round" opacity=".16"/><path d="M550 415V510" fill="none" stroke="#52667A" stroke-width="2" stroke-linecap="round" stroke-linejoin="round" opacity=".16"/><path d="M298 350H385" fill="none" stroke="#52667A" stroke-width="2" stroke-linecap="round" stroke-linejoin="round" opacity=".16"/><path d="M615 330H685" fill="none" stroke="#52667A" stroke-width="2" stroke-linecap="round" stroke-linejoin="round" opacity=".16"/><path d="M615 585H685" fill="none" stroke="#52667A" stroke-width="2" stroke-linecap="round" stroke-linejoin="round" opacity=".16"/><path d="M800 510V415" fill="none" stroke="#52667A" stroke-width="2" stroke-linecap="round" stroke-linejoin="round" opacity=".16"/><path d="M298 410H340V725H950V340H985" fill="none" stroke="#52667A" stroke-width="2" stroke-linecap="round" stroke-linejoin="round" opacity=".16"/><path d="M1215 340H1315" fill="none" stroke="#52667A" stroke-width="2" stroke-linecap="round" stroke-linejoin="round" opacity=".16"/><path d="M1100 415V510" fill="none" stroke="#52667A" stroke-width="2" stroke-linecap="round" stroke-linejoin="round" opacity=".16"/>
  <g opacity="0.33"><rect x="48" y="300" width="250" height="350" rx="18" fill="#111F33" stroke="#52667A" stroke-width="2"/><g transform="translate(139 345)" fill="none" stroke="#52667A" stroke-width="4"><rect x="0" y="18" width="68" height="50" rx="8"/><path d="M14 18V2M54 18V2M21 55h26"/><circle cx="18" cy="43" r="4" fill="#52667A"/><circle cx="50" cy="43" r="4" fill="#52667A"/></g><text x="173" y="480" fill="#52667A" font-family="Noto Sans JP, Yu Gothic, sans-serif" font-size="25" font-weight="900" text-anchor="middle">エッジデバイス</text><text x="173" y="535" fill="#F5F7FB" font-family="Noto Sans JP, Yu Gothic, sans-serif" font-size="16" font-weight="700" text-anchor="middle">収集・集約・署名</text></g><g opacity="1"><rect x="385" y="260" width="230" height="155" rx="18" fill="#111F33" stroke="#F6821F" stroke-width="4"/><use href="#cf-workers" x="410" y="288" width="54" height="54" color="#F6821F"/><text x="477" y="322" fill="#F6821F" font-family="Noto Sans JP, Yu Gothic, sans-serif" font-size="25" font-weight="900" text-anchor="start">Workers</text><text x="500" y="378" fill="#F5F7FB" font-family="Noto Sans JP, Yu Gothic, sans-serif" font-size="16" font-weight="700" text-anchor="middle">API・認証</text></g><g opacity="1"><rect x="385" y="510" width="230" height="155" rx="18" fill="#111F33" stroke="#F6821F" stroke-width="4"/><use href="#cf-d1" x="410" y="538" width="54" height="54" color="#F6821F"/><text x="477" y="572" fill="#F6821F" font-family="Noto Sans JP, Yu Gothic, sans-serif" font-size="25" font-weight="900" text-anchor="start">D1</text><text x="500" y="628" fill="#F5F7FB" font-family="Noto Sans JP, Yu Gothic, sans-serif" font-size="16" font-weight="700" text-anchor="middle">運用状態</text></g><g opacity="0.33"><rect x="685" y="260" width="230" height="155" rx="18" fill="#111F33" stroke="#52667A" stroke-width="2"/><use href="#cf-containers" x="710" y="288" width="54" height="54" color="#52667A"/><text x="777" y="322" fill="#52667A" font-family="Noto Sans JP, Yu Gothic, sans-serif" font-size="19" font-weight="900" text-anchor="start">Proof Server</text><text x="800" y="378" fill="#F5F7FB" font-family="Noto Sans JP, Yu Gothic, sans-serif" font-size="16" font-weight="700" text-anchor="middle">証明生成</text></g><g opacity="0.33"><rect x="685" y="510" width="230" height="155" rx="18" fill="#111F33" stroke="#52667A" stroke-width="2"/><use href="#cf-queues" x="710" y="538" width="54" height="54" color="#52667A"/><text x="777" y="572" fill="#52667A" font-family="Noto Sans JP, Yu Gothic, sans-serif" font-size="25" font-weight="900" text-anchor="start">Queues</text><text x="800" y="628" fill="#F5F7FB" font-family="Noto Sans JP, Yu Gothic, sans-serif" font-size="16" font-weight="700" text-anchor="middle">証明依頼</text></g><g opacity="0.33"><rect x="985" y="260" width="230" height="155" rx="18" fill="#111F33" stroke="#52667A" stroke-width="2"/><use href="#cf-containers" x="1010" y="288" width="54" height="54" color="#52667A"/><text x="1077" y="322" fill="#52667A" font-family="Noto Sans JP, Yu Gothic, sans-serif" font-size="19" font-weight="900" text-anchor="start">Sponsor Wallet</text><text x="1100" y="378" fill="#F5F7FB" font-family="Noto Sans JP, Yu Gothic, sans-serif" font-size="16" font-weight="700" text-anchor="middle">手数料・送信</text></g><g opacity="0.33"><rect x="985" y="510" width="230" height="155" rx="18" fill="#111F33" stroke="#52667A" stroke-width="2"/><use href="#cf-r2" x="1010" y="538" width="54" height="54" color="#52667A"/><text x="1077" y="572" fill="#52667A" font-family="Noto Sans JP, Yu Gothic, sans-serif" font-size="25" font-weight="900" text-anchor="start">R2</text><text x="1100" y="628" fill="#F5F7FB" font-family="Noto Sans JP, Yu Gothic, sans-serif" font-size="16" font-weight="700" text-anchor="middle">暗号化同期</text></g><g opacity="1"><rect x="1315" y="275" width="285" height="220" rx="18" fill="#17152E" stroke="#A66CFF" stroke-width="4"/><g transform="translate(1415.5 299)" fill="none" stroke="#A66CFF" stroke-width="4"><path d="M45 5a42 42 0 1 0 24 76A36 36 0 0 1 45 5Z"/><path d="M72 13l4 8 8 4-8 4-4 8-4-8-8-4 8-4z" fill="#A66CFF"/></g><text x="1457.5" y="425" fill="#A66CFF" font-family="Noto Sans JP, Yu Gothic, sans-serif" font-size="29" font-weight="900" text-anchor="middle">MIDNIGHT</text><text x="1457.5" y="465" fill="#F5F7FB" font-family="Noto Sans JP, Yu Gothic, sans-serif" font-size="16" font-weight="700" text-anchor="middle">しきい値・判定記録</text></g><g opacity="1"><rect x="1315" y="565" width="285" height="130" rx="18" fill="#111F33" stroke="#38D6E8" stroke-width="4"/><g transform="translate(1343 601)" fill="none" stroke="#38D6E8" stroke-width="3"><rect width="54" height="38" rx="5"/><path d="M9 49h36M27 38v11"/></g><text x="1417" y="623" fill="#38D6E8" font-family="Noto Sans JP, Yu Gothic, sans-serif" font-size="25" font-weight="900" text-anchor="start">第三者画面</text><text x="1457.5" y="657" fill="#F5F7FB" font-family="Noto Sans JP, Yu Gothic, sans-serif" font-size="16" font-weight="700" text-anchor="middle">判定を確認</text></g>
  <path d="M1315 455H1260V725H500V665" fill="none" stroke="#79D66A" stroke-width="5" stroke-linecap="round" stroke-linejoin="round" marker-end="url(#green-arrow)"/><rect x="844" y="693" width="172" height="28" rx="8" fill="#06111F" opacity=".94"/><text x="930" y="713" fill="#79D66A" font-family="Noto Sans JP, Yu Gothic, sans-serif" font-size="13" font-weight="900" text-anchor="middle">確定結果</text><path d="M615 335H650V235H1275V630H1315" fill="none" stroke="#38D6E8" stroke-width="5" stroke-linecap="round" stroke-linejoin="round" marker-end="url(#cyan-arrow)"/><rect x="1049" y="206" width="172" height="28" rx="8" fill="#06111F" opacity=".94"/><text x="1135" y="226" fill="#38D6E8" font-family="Noto Sans JP, Yu Gothic, sans-serif" font-size="13" font-weight="900" text-anchor="middle">公開情報</text>
  <rect x="48" y="805" width="1552" height="78" rx="16" fill="#0A1727" stroke="#79D66A" stroke-width="2"/>
  <text x="82" y="854" fill="#AAB7C8" font-family="Noto Sans JP, Yu Gothic, sans-serif" font-size="18" font-weight="900" text-anchor="start">着目点</text>
  <text x="185" y="855" fill="#F5F7FB" font-family="Noto Sans JP, Yu Gothic, sans-serif" font-size="24" font-weight="900" text-anchor="start">第三者が見るのは日付・しきい値・判定・取引記録だけ</text>
  <text x="1570" y="867" fill="#AAB7C8" font-family="Noto Sans JP, Yu Gothic, sans-serif" font-size="10" font-weight="400" text-anchor="end">Cloudflare公式製品アイコン使用</text>
  </svg>
